<svg xmlns="http://www.w3.org/2000/svg" viewBox="0 0 494.71 527.93"><title>logo</title><path d="M441.86,522.29c-4.85.18-9.14.42-13.42-.4-.94-.18-1.89-.3-2.83-.47-2.43-.45-4.85-.87-7.27-1.36s-5.11-1.06-7.65-1.66c-3-.71-6-1.44-9-2.28-4-1.12-8-2.25-11.92-3.56-3.54-1.19-7-2.64-10.5-4-2.8-1.05-5.68-2-8.43-3.13-5.41-2.32-10.83-4.63-16.1-7.22-6-3-12-6.05-17.85-9.43-4.92-2.86-9.56-6.2-14.32-9.34-1-.65-2-1.3-3-2a198,198,0,0,1-23.36-19.08,131.69,131.69,0,0,1-13.09-13.73c-2-2.56-4.42-4.8-6.51-7.3s-3.79-4.87-5.61-7.36c-4.21-5.77-8-11.8-11.71-17.93A110.87,110.87,0,0,1,252.76,400c-2.12-4.78-4.2-9.59-6-14.49-2.06-5.5-3.87-11.09-5.66-16.69a56.6,56.6,0,0,1-1.25-5.84q-.54-2.56-1.11-5.13c-.48-2.17-1.07-4.33-1.44-6.52-.27-1.57-.13-3.2-.37-4.78a137.47,137.47,0,0,1-1.27-19.34c0-.79,0-1.57,0-2.55a24.81,24.81,0,0,1,3-.49c4.8-.16,9.59-.33,14.39-.36q27.71-.19,55.42-.3a11.53,11.53,0,0,0,4.43-.71c7.28-3,15-3.74,22.75-4,6.23-.2,12.47-.27,18.71-.3a4.56,4.56,0,0,0,3.94-1.75c3.1-4,7.62-5.41,12.3-6a47.75,47.75,0,0,1,16,.51c2.8.61,5.66.9,8.49,1.39,1.72.29,3.43.68,5.14,1,6.68,1.45,13,4.1,19.55,6,3.89,1.13,7.65,2.69,11.47,4.09,4.23,1.54,8.46,3.07,12.67,4.68,4.75,1.81,9.46,3.73,14.21,5.57,3.91,1.52,7.84,3,11.75,4.48,1.77.69,3.55,1.39,5.25,2.22a3.34,3.34,0,0,0,3,0c4.23-1.75,8.49-3.43,12.73-5.17,4.87-2,9.71-4.06,14.6-6,3.81-1.54,7.66-3,11.52-4.43,7.25-2.66,14.51-5.26,21.78-7.87,3.43-1.23,6.86-2.49,10.34-3.59,2.56-.82,5.19-1.47,7.82-2.06,3.81-.85,7.63-1.66,11.47-2.34,6.72-1.19,13.49-1.93,20.26-.57,4.34.88,8.51,2.3,11.31,6.11a3.93,3.93,0,0,0,3.54,1.51c6.32,0,12.65-.14,19,.17a58,58,0,0,1,16,2.66,27.46,27.46,0,0,0,9.65,1.41c9.12-.17,18.24-.15,27.36-.25,13-.14,26.07-.33,39.11-.48,1.19,0,2.39.11,3.59.16s1.82.63,1.78,2c-.11,4.16,0,8.33-.21,12.47a142.31,142.31,0,0,1-3.92,26c-1,4.1-1.79,8.29-3.26,12.23-2.4,6.46-4.14,13.17-7.44,19.3-1.72,3.2-2.85,6.73-4.51,10-1.78,3.44-3.85,6.74-5.85,10.07-1.67,2.79-3.36,5.58-5.18,8.27-3.34,4.91-6.92,9.64-10.54,14.35-4.86,6.3-10.4,12-15.78,17.8-2.27,2.45-4.92,4.53-7.41,6.76-2,1.79-4,3.58-6.07,5.29-3.41,2.84-6.76,5.77-10.34,8.37-5.72,4.15-11.58,8.09-17.43,12-1.91,1.29-4,2.34-6,3.47-3.67,2.06-7.34,4.11-11,6.12a116.18,116.18,0,0,1-14.53,7c-1.77.67-3.47,1.56-5.22,2.3-2.9,1.23-5.79,2.49-8.73,3.59-3.94,1.47-7.94,2.81-11.91,4.19-3.62,1.25-7.21,2.57-10.87,3.69-2.65.82-5.39,1.4-8.09,2.05-4,1-8,2-12,2.83-2.41.52-4.88.8-7.32,1.18-1.5.23-3,.47-4.5.67a11.18,11.18,0,0,1-5.74-.74,8.21,8.21,0,0,1,1-1.53c5.21-4.83,8-11.17,11-17.39a94.69,94.69,0,0,0,6.71-20.4,106,106,0,0,0,2.39-28.33,99.49,99.49,0,0,0-1.89-15.18c-.93-4.72-2.56-9.21-3.63-13.87a20.17,20.17,0,0,0-1.61-4.22c-.74-1.54-1.44-1.73-3.07-1.23-2.65.81-5.32,1.57-8,2.35l-.23.08c-3.12,1.2-3.35,1.95-2.46,5.21a114.2,114.2,0,0,1,2.57,12.08c1,6.37.86,12.74.92,19.11a67.66,67.66,0,0,1-2.1,16.11c-1.28,5.48-3.14,10.83-5,16.17-.68,2-2,3.82-2.84,5.79-1.26,2.85-2.95,5.45-4.47,8.14a83.57,83.57,0,0,1-8.69,12.67c-2.89,3.44-6,6.68-9.14,9.92-1.69,1.75-3.61,3.27-5.38,5-2.14,2-2.7,2.16-5,.14-3-2.63-5.93-5.28-8.68-8.12a130.81,130.81,0,0,1-9.14-10.28c-2.71-3.5-5-7.33-7.42-11.06a43.65,43.65,0,0,1-3-5.16c-2-4.32-4.1-8.61-5.68-13.09a85.78,85.78,0,0,1-4.35-17.35,104,104,0,0,1-1.07-20.09,84.41,84.41,0,0,1,2-15.65c.47-1.84.78-3.74,1.12-5.62.4-2.11-.25-3.14-2.31-3.76L429,418.79c-1.66-.49-2.61-.1-3.17,1.6-1.55,4.74-3.44,9.39-4.22,14.38s-1.87,9.68-2.4,14.57a67.92,67.92,0,0,0-.11,11.5c.3,4.61,1.2,9.18,1.51,13.8.25,3.78,1.41,7.34,2.13,11a44.11,44.11,0,0,0,2.12,6.57c1.18,3.22,2.26,6.49,3.73,9.57,2.18,4.57,4.21,9.25,7.63,13.13,1.52,1.72,2.87,3.57,4.28,5.38C440.86,520.77,441.18,521.3,441.86,522.29Zm-37.52-10.66.46-.65c-.51-1.05-.95-2.14-1.55-3.14a65.28,65.28,0,0,1-4.95-11.06,62.87,62.87,0,0,1-3.18-15.36,110.14,110.14,0,0,1,.89-27.26,37.83,37.83,0,0,1,1.09-5.61c1.56-5.17,3.14-10.34,4.93-15.44a127.24,127.24,0,0,1,7.11-16.35c.51-1,1.09-1.95,1.51-3,.63-1.53.24-2.49-1.16-3.4a21.05,21.05,0,0,0-2.33-1.61,78.79,78.79,0,0,1-12.74-8.32,136.65,136.65,0,0,1-13.6-11.84,2.86,2.86,0,0,0-3.05-.72c-4.9,1.38-9.85,2.61-14.77,4-7.67,2.1-15.58,2.69-23.43,3.46a60.84,60.84,0,0,1-15.29-.6,58,58,0,0,1-18-5.38,37.29,37.29,0,0,1-11.95-9.23,41.62,41.62,0,0,1-5.37-8.65c-1.88-3.88-2.4-8-2.88-12.19-.26-2.23.36-4.41.65-6.61.7-5.27,3.11-9.78,5.74-14.2a33.76,33.76,0,0,1,6.69-7.68c.64-.58,1.42-1,1.3-2.37a26.79,26.79,0,0,0-3.72-.51c-2.64,0-5.27.21-7.91.23-8.87.06-17.75.07-26.62.11q-3.12,0-6.24.08c-.93,0-1.8.2-2.06,1.26a23.81,23.81,0,0,0-1,4.66c-.4,9.87-1.08,19.75.77,29.57.5,2.65.8,5.34,1.21,8a9.75,9.75,0,0,0,.38,1.38c1,3.42,2,6.87,3.16,10.26,1.3,3.83,2.64,7.66,4.19,11.39,1.15,2.77,2.91,5.3,3.93,8.11a57.89,57.89,0,0,0,5.39,10.33c3.47,5.69,7.24,11.2,11.07,16.66,2.63,3.76,5.45,7.41,8.42,10.92,3.74,4.41,7.61,8.73,11.65,12.88,3.81,3.93,7.8,7.69,11.89,11.33,3.43,3,7.15,5.75,10.65,8.72a122.2,122.2,0,0,0,12.17,9.09c.66.43,1.37.8,2,1.29a106.87,106.87,0,0,0,17.13,10.32c5.87,3,12,5.43,18.1,8,3.2,1.37,6.41,2.73,9.71,3.81,5.28,1.73,10.63,3.24,16,4.77A26.3,26.3,0,0,0,404.34,511.63ZM655.11,326.07a8.22,8.22,0,0,0,1.27,1.35,32.42,32.42,0,0,1,7.43,7.9,34.74,34.74,0,0,1,5.28,10.87c1.46,5.19,2.15,10.27.88,15.54-.29,1.16-.82,2.26-1.05,3.43-1.1,5.6-4.18,10.13-8,14.1a34.56,34.56,0,0,1-10.39,7.7c-3,1.36-5.81,3-9,3.69-4.9,1.09-9.81,2.21-14.77,3-5.66.86-11.32-.09-17-.53A137.26,137.26,0,0,1,583,388.18a22.42,22.42,0,0,0-4-.8,2.65,2.65,0,0,0-2,.57c-3.4,3.57-7.3,6.58-11,9.81a68.71,68.71,0,0,1-6.06,4.49c-3.72,2.59-7.6,4.95-11.42,7.4a5.87,5.87,0,0,1-1.23.67c-2.68.92-3,1.65-1.7,4.16,2,4,4,8.06,6,12.12a54.16,54.16,0,0,1,2.11,5c1.12,3.14,2,6.36,3.24,9.46,2.93,7.36,4,15.15,4.69,22.92a79.76,79.76,0,0,1-2,28.06c-1.46,5.45-3.2,10.78-6.31,15.57a1.91,1.91,0,0,0-.18,1.73c.37.45,1.18.55,1.83.73a1.35,1.35,0,0,0,.69-.13c3.92-1.22,7.85-2.38,11.73-3.7,3.59-1.22,7.17-2.52,10.68-4,4.55-1.88,9-4,13.55-5.91a132.75,132.75,0,0,0,15-7.55c3.68-2.17,7.24-4.56,10.78-7,2.89-1.95,5.73-4,8.49-6.12,3.07-2.39,6-4.94,9-7.4a171,171,0,0,0,15.88-14.8c2.69-2.82,5.41-5.62,8-8.55,3.13-3.59,6.16-7.28,9.12-11,2.06-2.6,4-5.33,5.87-8s3.66-5.16,5.34-7.84c1.57-2.48,3-5.07,4.39-7.63,2-3.59,4.22-7.1,6-10.82a163.31,163.31,0,0,0,6.38-15.44,161.63,161.63,0,0,0,4.72-16.73,92.33,92.33,0,0,0,1.9-13.25,114.31,114.31,0,0,0-.81-26.07c-.47-3.2-1.11-3.76-4.31-3.75q-19.8.09-39.59.17A2.72,2.72,0,0,0,655.11,326.07ZM508.52,424.49a29.45,29.45,0,0,0-3.54,0c-2.6.35-5.17,1-7.78,1.2-6.53.53-13.06,1.11-19.6,1.22-5.26.09-10.53-.47-15.8-.78-1.11-.06-2.21-.29-3.31-.46-2.67-.39-5.33-.88-8-1.16-1.66-.17-2.36.39-2.83,2s-.91,3.22-1.24,4.85a69.85,69.85,0,0,0-1.57,9.12c-.31,5.1-.18,10.22-.26,15.34a66.49,66.49,0,0,0,1.26,12.82,47.68,47.68,0,0,0,1.09,5.62q1.68,5.46,3.71,10.81c.81,2.16,2.05,4.15,2.87,6.31,2.12,5.54,5.62,10.26,8.89,15.1a79,79,0,0,0,6.79,8.58c2.65,2.93,5.52,5.66,8.44,8.33,1.66,1.52,2.56,1.23,4.33-.23a40.31,40.31,0,0,0,6.14-6.25c3.26-4.2,6.6-8.34,9.74-12.62a67.45,67.45,0,0,0,6.71-12c1.81-4,3.81-7.88,4.69-12.22.63-3.05,1.58-6,2.14-9.08a102.19,102.19,0,0,0,1.46-10.41c.23-2.94,0-5.91,0-8.87a52,52,0,0,0-.75-11.69c-.6-2.73-1.07-5.48-1.71-8.2C509.88,429.37,509.19,427,508.52,424.49Zm-162.08-99.1c-1.81.11-4.06.12-6.28.4-3.29.41-6.56,1-9.85,1.53-2.27.35-4.56.6-6.84.93a44.7,44.7,0,0,0-16.35,5.64,30,30,0,0,0-7.08,5.16,26,26,0,0,0-6.62,12.77c-1.67,8.51-.37,16.31,5.09,23.24a30,30,0,0,0,4.93,4.76,29.51,29.51,0,0,0,12.92,5.64c2.56.54,5.22.58,7.74,1.23,3.56.91,7.13.74,10.7.61,1.49-.05,3-.57,4.45-.75,3.71-.46,7.42-.85,11.13-1.27l.24,0c3.05-.58,6.1-1.13,9.13-1.77,3.43-.73,6.85-1.55,10.26-2.34,2.5-.57,3.08-1.42,1.37-4.07-.09-.13-.21-.25-.3-.38a87.14,87.14,0,0,1-9.17-15.88c-1.34-3.13-2.35-6.38-3.44-9.6a68.6,68.6,0,0,1-3-13.74c-.37-3-.46-6-.64-9.08-.16-2.57-.49-2.95-3-3C350.22,325.37,348.54,325.39,346.44,325.39Zm238.68,53.32a2.87,2.87,0,0,0,2.43,2c6.38,1,12.76,2,19.13,3,.4.06.79.15,1.18.2,3.94.49,7.87,1.2,11.83,1.42a64.46,64.46,0,0,0,16.12-1.54,54,54,0,0,0,15.35-5.07c6.22-3.31,9.76-8.6,11.51-15.05A27.38,27.38,0,0,0,663,349a34.29,34.29,0,0,0-3.76-8.85c-3.61-5.83-9.33-8.94-15.24-11.79a23.56,23.56,0,0,0-3.83-1.27,82.58,82.58,0,0,0-8.65-2.35c-3.83-.67-7.74-.92-11.62-1.35-.4,0-.79-.11-1.19-.13-4.46-.23-8.91-.44-13.37-.68a1.86,1.86,0,0,0-2,1.37,6.66,6.66,0,0,0-.39,2.08,80,80,0,0,1-.92,12.62A95.27,95.27,0,0,1,598.87,352a81.78,81.78,0,0,1-6.22,14.45c-1.64,2.9-3.37,5.74-5.11,8.58C586.77,376.33,585.9,377.54,585.12,378.71Zm4.47-55.43-.05-.15c-3.15.43-6.3.89-9.46,1.29-3.31.41-6.64.78-10,1.16a5.73,5.73,0,0,0-.7.13c-2.4.53-4.8,1.05-7.18,1.62-3.48.83-7,1.6-10.4,2.58-3.68,1.06-7.33,2.23-10.92,3.55-4.75,1.74-9.48,3.56-14.12,5.57-3.71,1.61-7.32,3.47-10.87,5.4s-7,4.08-10.43,6.18c-.83.51-1,1.3-.15,1.93a14.32,14.32,0,0,0,2.85,1.68c3.15,1.35,6.33,2.62,9.51,3.89q7,2.79,14.07,5.53,4.44,1.74,8.91,3.4c5.65,2.11,11.29,4.22,16.95,6.29,1.26.46,2.56.81,3.85,1.15,2,.53,4,1,6,1.5,2.71.61,5.43,1.21,8.16,1.7a2.54,2.54,0,0,0,1.75-.53,8,8,0,0,0,2-2c2.72-4.19,5.42-8.4,8-12.67,2.86-4.71,4.6-9.9,6.23-15.13A30.78,30.78,0,0,0,595,343c.54-3.45,1-6.93,1.29-10.42a50.05,50.05,0,0,0,.12-6.93c-.11-2.09-.65-2.42-2.71-2.38C592.3,323.3,590.94,323.28,589.59,323.28Zm-228,9.24a47.26,47.26,0,0,0,2.11,12.93c1.37,4.72,2.34,9.58,4.93,13.9,1.5,2.5,2.76,5.15,4,7.77,1.77,3.6,4.34,6.63,6.8,9.73a2.72,2.72,0,0,0,2.86,1.33l10.57-2.89c.91-.26,1.8-.59,2.7-.86,2.59-.75,5.23-1.36,7.76-2.26,7-2.49,13.64-5.67,20.6-8.18,2.4-.87,4.77-2,7.15-3.05,4.23-1.83,8.43-3.73,12.65-5.61,1.3-.59,2.64-1.12,3.89-1.82,1.43-.79,1.5-1.47.16-2.42a41.91,41.91,0,0,0-4.83-3c-4.51-2.35-9-4.76-13.63-6.86a109.16,109.16,0,0,0-15.69-6.06c-4.68-1.31-9.29-2.83-14-4.1-3.69-1-7.43-1.79-11.17-2.58-2.17-.46-4.38-.8-6.59-1.09-3.39-.45-6.78-.82-10.18-1.2-2.52-.28-5-.61-7.58-.77-2.09-.13-2.49.33-2.56,2.49C361.52,329.48,361.56,331,361.56,332.52Zm117.82,88.35c5.52-.46,11-.86,16.49-1.38,2.54-.24,5.06-.65,7.56-1.09,1.47-.25,2-1.13,1.74-2.61a6.76,6.76,0,0,0-.41-1.62c-1.48-3.33-2.79-6.76-4.56-9.94-2.28-4.09-4.9-8-7.44-11.93a128.17,128.17,0,0,0-13.43-16.68c-1.43-1.57-2-1.67-3.52-.11a72.47,72.47,0,0,0-6.8,7.65c-3.88,5.28-7.85,10.55-10.76,16.46q-3.69,7.49-7.08,15.1c-.91,2-.18,3.29,2.05,3.6,3.15.43,6.2,1.31,9.43,1.4C468.23,419.86,473.8,420.46,479.38,420.87Zm22.33-61.25a27.32,27.32,0,0,0,2.11,2.66c3,2.91,6.18,5.69,9.17,8.64a184.84,184.84,0,0,1,14.12,16c3.28,4.09,6.43,8.25,9.32,12.61.92,1.39,1.78,2.8,2.69,4.19,1.33,2,2.31,2.29,4.37,1.17,1.82-1,3.7-1.89,5.42-3,4-2.66,8.08-5.3,11.9-8.23,2.77-2.12,5.17-4.72,7.74-7.09a1.33,1.33,0,0,0-.11-2.24,4.54,4.54,0,0,0-1.45-.79c-3.9-1.37-7.82-2.69-11.72-4.08-2.7-1-5.36-2-8-3-4.82-1.77-9.66-3.5-14.46-5.33-5-1.89-9.92-3.89-14.89-5.81-2.8-1.08-5.64-2.05-8.43-3.16-1.75-.7-3.42-1.61-5.17-2.32A10.53,10.53,0,0,0,501.71,359.62ZM388.12,386a14.32,14.32,0,0,0,1.65,2.27,104.08,104.08,0,0,0,22.9,16.08c1.95,1,2.77.77,4-1,2.7-3.91,5.36-7.85,8.12-11.72a126.71,126.71,0,0,1,10.89-13.86c4.3-4.55,8.7-9,13-13.54,1.22-1.28,2.34-2.66,3.5-4l-.25-.49a8.5,8.5,0,0,0-2,.21c-1.42.49-2.79,1.1-4.18,1.69l-14.88,6.32c-1.9.81-3.78,1.68-5.71,2.43-2.28.88-4.61,1.61-6.88,2.51-4.42,1.74-8.79,3.62-13.22,5.32-4.91,1.88-9.87,3.64-14.82,5.43A3.12,3.12,0,0,0,388.12,386Zm41.64,24.82a6.73,6.73,0,0,0,1.09,1.53,5.29,5.29,0,0,0,1.91,1c2.76.79,5.52,1.57,8.31,2.25,2,.5,3.07.09,3.47-1.81a25.11,25.11,0,0,1,2.25-5.5c2.1-4.45,4.12-9,6.49-13.26A116,116,0,0,1,460,384.62c1.95-2.8,4.09-5.47,6.21-8.16,1.41-1.79,3-3.47,4.39-5.26,1.3-1.64,1.32-2.45,0-3.71q-2.62-2.42-5.46-4.58c-1.57-1.2-2.27-1.07-3.64.38-3.28,3.44-6.37,7-9.36,10.76-3.43,4.28-6.57,8.72-9.64,13.25a186.87,186.87,0,0,0-12.11,21.62A13.91,13.91,0,0,0,429.76,410.78Zm60.85-48.63a6.27,6.27,0,0,0-1.66.67c-1.82,1.54-3.62,3.1-5.33,4.74-1.12,1.07-1,1.77.21,3,2.45,2.69,5,5.3,7.26,8.15a118.7,118.7,0,0,1,11.24,15.92c2.2,3.94,4.37,7.9,6.46,11.9,1.33,2.54,2.51,5.16,3.72,7.76.45,1,1.09,1.67,2.2,1.38,3.24-.83,6.48-1.67,9.66-2.68a1.78,1.78,0,0,0,1.33-2.42c-.85-1.86-1.69-3.73-2.67-5.53-2.18-4-4.28-8-6.71-11.79-3.16-5-6.44-9.84-10-14.51-3-4-6.47-7.62-9.8-11.36-1.36-1.53-2.89-2.93-4.39-4.33A8,8,0,0,0,490.61,362.15Zm-121.2-44.3-.11.51c.47.3.93.82,1.42.86,4.55.37,9,1.47,13.48,2.09,5.71.79,11.23,2.32,16.87,3.32a40,40,0,0,1,5.11,1.08c4.52,1.45,9,3,13.5,4.55a148,148,0,0,1,21.62,9.37c5,2.64,9.77,5.64,14.64,8.49a3.75,3.75,0,0,0,3.4.56c1.92-.77,3.85-1.52,5.71-2.41,1.11-.53,1.1-1.5.1-2.27a4.27,4.27,0,0,0-.84-.46c-2.27-1-4.51-2-6.81-2.93-4.92-1.93-9.87-3.8-14.82-5.66-3.35-1.26-6.71-2.51-10.1-3.68-4.05-1.4-8.14-2.7-12.2-4.07-4.5-1.51-8.93-3.25-13.5-4.54-5.75-1.63-11.61-2.86-17.4-4.35-6.06-1.55-12.19-1.27-18.33-.95A8,8,0,0,0,369.41,317.85Zm218.66-1.37v-.58a12.11,12.11,0,0,0-6.09-1.49,47.68,47.68,0,0,0-10,1c-2.81.53-5.71.68-8.47,1.4-5.94,1.52-11.87,3.16-17.71,5-6.49,2.06-12.9,4.38-19.31,6.68-4.35,1.55-8.64,3.24-12.94,4.92q-7.08,2.78-14.12,5.65c-3.53,1.44-7,2.91-10.52,4.45a2.3,2.3,0,0,0-1.2,1.52c-.06.37.68,1,1.2,1.27a36.23,36.23,0,0,0,4.12,1.85,5,5,0,0,0,5.15-.61,135.49,135.49,0,0,1,18.62-11c2.56-1.28,5.28-2.26,7.76-3.66,5-2.79,10.45-4.27,15.72-6.28,2.79-1.07,5.7-1.88,8.58-2.73,2.67-.78,5.36-1.57,8.08-2.16,3.66-.81,7.35-1.47,11-2.12q6.36-1.11,12.76-2.1C583.2,317.09,585.64,316.81,588.07,316.48Zm-111,47.14a4.1,4.1,0,0,0,1.4-.48c2-1.73,3.89-3.48,5.73-5.32.88-.87.8-1.77-.16-2.7-1.88-1.81-3.79-3.59-5.78-5.26-1.45-1.22-1.9-1.15-3.48.21q-2.68,2.32-5.26,4.77c-1.11,1-1.09,1.83.17,2.94,2,1.77,4.1,3.46,6.18,5.16A8.27,8.27,0,0,0,477.12,363.62Z" transform="translate(-229.9 -5.35)"/><path d="M695.35,275.23a7.78,7.78,0,0,1,.49-1.38c2.37-4,4.77-8,7.14-12.07a2.65,2.65,0,0,0-.38-3.3c-1-1.16-1.91-2.33-2.88-3.47-2-2.29-3.92-4.55-5.84-6.86-.26-.3-.31-.78-.13-1.53a24.63,24.63,0,0,1,2.06,1.38q6.09,5.13,12.12,10.3c1.55,1.32,1.56,1.7.21,3.24q-5.48,6.27-11,12.53c-.45.5-1,.94-1.46,1.41Z" transform="translate(-229.9 -5.35)"/><path d="M710.83,275.23a7.8,7.8,0,0,1,.5-1.38c2.36-4,4.76-8,7.14-12.07a2.66,2.66,0,0,0-.39-3.3c-1-1.16-1.91-2.33-2.88-3.47-1.94-2.29-3.91-4.55-5.84-6.86-.26-.3-.31-.78-.12-1.53a24.46,24.46,0,0,1,2,1.38q6.09,5.13,12.13,10.3c1.54,1.32,1.56,1.7.2,3.24q-5.48,6.27-11,12.53c-.44.5-1,.94-1.45,1.41Z" transform="translate(-229.9 -5.35)"/><path d="M677.67,251.38h0c-7,.18-14,.08-21,.07-4.39,0-8.79,0-13.19,0-2,0-2.22.28-2.1,2.26.11,1.68.27,3.35.42,5,.06.75.28,1.74,1.58,1.46.52-.78.34-2.29.66-3.74a2.76,2.76,0,0,1,2.06-2.31c2.83-.93,5.69-.69,8.55-.64,1.92,0,2.5.62,2.74,2.58.06.46.11.93.16,1.39.11,1.05.19,2.1.2,3.15,0,6.72.08,13.43,0,20.15a28.78,28.78,0,0,1-.52,3.54,2.67,2.67,0,0,1-2.45,2.51,28.29,28.29,0,0,0-3.23.93c0,.2,0,.39,0,.59a7.72,7.72,0,0,0,1.86.59c1.74.13,6.92.15,8.67.12,4.46-.06,5.49-.11,9.95-.25a5,5,0,0,0,1.56-.63l0-.61c-1.19-.33-2.37-.71-3.58-.95a2.7,2.7,0,0,1-2.33-2.39,30.88,30.88,0,0,1-.44-3.81c-.13-7.84-.22-15.67-.32-23.51a6.79,6.79,0,0,1,.1-1.43,2.15,2.15,0,0,1,2.47-2c2.72,0,5.44,0,8.16,0a2.74,2.74,0,0,1,2.8,2.15c.28.91.36,1.88.55,2.82.14.71.27,1.45,1.5,1.34.34-.35.29-1.14.32-1.74.05-1.11,0-2.23,0-3.35,0-2.23.05-3.07-.8-3.32" transform="translate(-229.9 -5.35)"/><path d="M635.32,263.24a1.21,1.21,0,0,1-1.4-1,7.6,7.6,0,0,0-.26-1.39,6.84,6.84,0,0,0-4.47-4.86,13.56,13.56,0,0,0-8-.17c-2.64.67-3.78,3-4.55,5.41-.58,1.84-.39,3.75-.57,5.67a18.35,18.35,0,0,0-.05,2.1c.07,2.51.09,4.35.09,5.94a9.68,9.68,0,0,0,5.71,8.94,21.08,21.08,0,0,0,7.43,1.66,16.55,16.55,0,0,0,2-.07l4-.32a1.18,1.18,0,0,1,.69,2.2h0a18.43,18.43,0,0,1-5.17,2.29,22.64,22.64,0,0,1-7.06.72c-4.38-.37-8.51-1.36-12-4.45a15.07,15.07,0,0,1-4.36-7.24,29,29,0,0,1-.86-13.72c.72-3.44,2-8.34,5.17-10.72a13.42,13.42,0,0,1,3.44-2c.75-.21,1.48-.45,2.2-.73,3.06-1.2,10.51-1.1,13-1a25.62,25.62,0,0,1,5.61,1.13,2,2,0,0,1,1.56,2.34c-.3,2.44-.59,4.88-.85,7.32C636.46,262.6,636.29,263.07,635.32,263.24Z" transform="translate(-229.9 -5.35)"/><path d="M594.09,285.29a1.39,1.39,0,0,1,1.19,2.5h0a25.46,25.46,0,0,1-5.95,2.29,30.41,30.41,0,0,1-9.48.7c-6.76-.33-11.39-4-14.4-9.81a15.12,15.12,0,0,1-1.37-4.3,14.27,14.27,0,0,1-.34-3.17c0-.1,0-.21,0-.31,0-1.43,0,.06.08-2.92a49.79,49.79,0,0,1,.25-7c.41-3.67,2-7.2,4.72-9.07,3.82-2.72,9.76-3.39,14.56-3.4.11,0,.22,0,.34,0,3.56.46,7.22.9,10.18,3.12a11.47,11.47,0,0,1,4.58,6.76,18.86,18.86,0,0,1,.6,6.53,5.52,5.52,0,0,1-.13,1.22c-.64,2.92-11.76,1.94-17.4,2-1.67,0-3.35-.06-5,0-2,.11-2.49.6-2.24,2.52.94,7.18,5.66,13,13.56,13.07a22.92,22.92,0,0,0,4.77-.3A9.57,9.57,0,0,0,594.09,285.29Zm-13.65-17.66c0,.07.11-.05.11,0,1.27,0,2.55.07,3.82,0,4.46-.29,5.54-2,4.83-6.45-.58-3.61-2.1-6.07-6.44-6.82a7.51,7.51,0,0,0-5.38,1,7.84,7.84,0,0,0-3.33,6.87c0,.12,0,.24,0,.36-.13,3.13,0,4.42,2.72,4.95C578,267.59,579.16,267.63,580.44,267.63Z" transform="translate(-229.9 -5.35)"/><path d="M538.33,257.92c.07,1.48,1.23,1,1.91,1.22,2.45.71,4.93,1.35,7.31,2.24,3.68,1.39,5.58,4.32,6.22,8.09a14.16,14.16,0,0,1-.76,8.65,18.93,18.93,0,0,1-8.58,9.25c-5.95,3.07-8.35,3.17-15.35,3.17h-4.39a78.89,78.89,0,0,1-12.61-.19,2.12,2.12,0,0,1-2-1.23c-.07-.16-.09-.29,0-.37a6.41,6.41,0,0,0,3.36-5.45c.12-8.15.16-16.3.07-24.46-.05-5.27-.37-10.54-.63-15.8a29.31,29.31,0,0,0-.53-4.27,2.73,2.73,0,0,0-2.58-2.43,12.48,12.48,0,0,1-2.33-.46l-.24-.08a1.16,1.16,0,0,1,.32-2.25h0c.63,0,1.27,0,1.91,0,9.67,0,19.34-.17,29-.05a24,24,0,0,1,7.23,1.38c3.34,1.13,6.21,5.65,6.21,8.89,0,5.9-3.5,9.22-8.34,11.62C542,256.17,540,257.21,538.33,257.92Zm-13.62,15.92h.09c0,3.44,0,6.87,0,10.3,0,2.25.86,3.13,3.14,3.31a22.71,22.71,0,0,0,6.34-.64c3.84-.79,7.56-5.4,7.59-9.09,0-2.39.13-4.79,0-7.18-.3-4.94-2.86-8.08-7.71-9.23a35.63,35.63,0,0,0-6.85-.72c-2.14-.08-2.54.32-2.58,2.48C524.65,266.66,524.71,270.25,524.71,273.84Zm1.89-37.39a2.21,2.21,0,0,0-1.89,2.07c-.06,1.27-.12,2.47-.13,3.67,0,4.24-.05,8.48,0,12.71,0,2.17.49,2.51,2.63,2.46,4-.08,7.85-.2,11.72-4.46a2.21,2.21,0,0,0,.54-1.18,44.67,44.67,0,0,0,.22-8.26,7.75,7.75,0,0,0-5.56-6.77A21.07,21.07,0,0,0,526.6,236.45Z" transform="translate(-229.9 -5.35)"/><path d="M458.06,253.73a7.86,7.86,0,0,1,1.74-.82,13.58,13.58,0,0,1,2.63-.17q16.29-.08,32.6-.11c.8,0,1.6,0,2.4.06s1.15.45,1,1.42a9.77,9.77,0,0,1-1.22.35c-3.17.46-4.13,2-4.17,4.57-.09,5.84.05,11.67.17,17.5.06,2.8.27,5.59.45,8.38.16,2.47.88,3.21,3.35,3.49.52.06,1,.11,1.58.15a2.14,2.14,0,0,1,2,2.24h0c-.16,2.95-.4,5.9-.6,8.85-.06.91-.43,1.59-1.39,1.61s-1.5-.72-1.57-1.72c-.09-1.27-.17-2.55-.27-3.82-.23-2.74-1.09-3.51-3.62-4.36-3.28-1.11-6.63-.82-10-.87-5.91-.1-11.83,0-17.75.12-1.71,0-4.19-.33-5.86.15-.6.17-1.2,1.83-1.5,2.42-1.09,2.18-1.38,4.24-2.31,6.5l0,.06a1.35,1.35,0,0,1-2.59-.5c0-1,0-2,.05-3.05.15-1.74,0-3.69.3-5.43.18-1.2,1.19-1.83,2.45-2.2,3.58-1,5.47-3.84,6.54-7.07,2.4-7.23,2.49-14.75,2.26-22.27-.07-2.55-.91-3.31-3.52-4-1-.28-2-.66-3.07-1Zm25.54,18.73h-.09q-.28-6.93-.56-13.86c-.07-1.95-.58-3-2-3-3.67-.08-7.35-.07-11,.13-1.69.1-2.15.85-2.26,2.52-.34,5.26-.56,10.52-1,15.76-.39,4.26-1.28,9.4-4.22,12.66-.51,1.08,1,2,.08,1.16,0,.37-1.18-.17,0,0a3.91,3.91,0,0,0,1.17,0q7.79,0,15.57-.11a11.14,11.14,0,0,0,1.91-.19c1-.17,1.32-.81,1.69-1.74a17.6,17.6,0,0,0,.74-8.06C483.63,278.27,483.6,275.87,483.6,272.46Z" transform="translate(-229.9 -5.35)"/><path d="M403,257.26c-.28-1.09-.06-1.61.91-1.74,2.45-.32,4.9-.62,7.33-1,1.95-.34,3.86-.84,5.79-1.25.38-.08.77-.11,1.47-.2l.13,1.46c.12,1.27-.08,2.09.91,1.29h0c1.54-1.21,4.09-2,6.08-2.66,2.95-1,8.09-.81,11-.33,2.54.42,5.71,1,7.53,3.15a18.56,18.56,0,0,1,3.75,6c1,3,.27,12.89-.13,15.87-.57,4.27-3.54,8.49-8.55,11.31a13.52,13.52,0,0,1-2.19,1c-3.26,1.43-9.82,2.24-12.94,1.63-1.12-.22-2.24-.38-3.36-.56a1.57,1.57,0,0,0-1.83,1.44c-.16,2.32-.13,4.08-.2,6.87,0,1.11-.08,1.81,0,3.38a11,11,0,0,0,.34,3.19c.79,3.05.85,4,4.66,4.37.54.05,1.08.16,1.67.25.28,1.09-.12,1.63-1.11,1.69-.8.05-1.6,0-2.4,0-5.52.05-11,.12-16.55.14-.85,0-2.2.46-2.2-1,0-1.33,1.29-.88,2.06-1,2.61-.44,3.57-1.42,3.59-4.2q.12-15.58.13-31.19c0-3.44-.09-6.88-.13-10.32,0-.48,0-1,0-1.44-.18-4.12-.74-4.81-4.72-5.83C403.69,257.41,403.38,257.35,403,257.26Zm15.68,15.48h.06c0,2.64.05,5.28,0,7.91,0,1.77,0,3.94,1.4,5.23,3.29,2.93,7.16,3.52,11.44,1.58,2.67-1.21,5.25-2.95,5.88-5.9.42-2.62.37-.64.43-3.75.23-3.43.13-10.12-1.15-13.32-1.82-4.55-5.61-7.11-12.09-6.08-.19,0-.35.16-.54.18-4.28.41-5.43,3.22-5.42,5.76C418.69,267.15,418.68,269.94,418.68,272.74Z" transform="translate(-229.9 -5.35)"/><path d="M376,255.38v-3.11c-.28,0-.56,0-.85,0-1.87.07-3.69.23-5.57.48-4.76.64-8.33,2.17-10.83,6.33-2.09,3.2-2.55,8.47-2.67,12.27a37.11,37.11,0,0,0,.77,8.07,17.1,17.1,0,0,0,3,6.58c3.06,4.42,7.81,5.84,12.91,6.32a24.45,24.45,0,0,0,3.2.11v-4.08c-4.42,0-6,0-8.08-4.18-1.1-2.2-1.08-7.28-1.14-9.73-.08-2.91,0-7.11-.1-10a8.19,8.19,0,0,1,2.07-6.24C370.07,256.28,373.05,255.38,376,255.38Z" transform="translate(-229.9 -5.35)"/><path d="M376,255.38v-3.11c.28,0,.56,0,.85,0,1.87.07,3.69.23,5.57.48,4.76.64,8.33,2.17,10.83,6.33,2.09,3.2,2.55,8.47,2.67,12.27a37.11,37.11,0,0,1-.77,8.07,17.1,17.1,0,0,1-3,6.58c-3.06,4.42-7.81,5.84-12.91,6.32a24.45,24.45,0,0,1-3.2.11v-4.08c4.42,0,6,0,8.08-4.18,1.1-2.2,1.08-7.28,1.14-9.73.08-2.91,0-7.11.1-10a8.19,8.19,0,0,0-2.07-6.24C381.93,256.28,379,255.38,376,255.38Z" transform="translate(-229.9 -5.35)"/><path d="M327.89,263.63q-11.28,0-22.55.1c-1.63,0-2.34.35-2.34,2.27v8.75c0,4.89,0,9.05,0,10.83,0,2.63,1.69,3.08,4.27,3.27a6.15,6.15,0,0,1,1.89.1,2.06,2.06,0,0,1,1.1,1.32c.11.67-.42,1.17-1.21,1.16h-.48l-21.59.11c-.31,0-.64,0-1,0-1.36,0-.71-1.05-.69-1.76,1.56-.39,2.73-.61,4.2-.84a2.55,2.55,0,0,0,2.29-2.61,39.45,39.45,0,0,0,.17-4.07c-.09-12.71.16-26.6,0-39.31a23.76,23.76,0,0,0-.5-3.92,2.73,2.73,0,0,0-1.9-1.29c-1.09-.22-2.18-.47-3.25-.76-.64-.18-1.26-.46-1.88-.69,0-.28,0-1,0-1.26a12.44,12.44,0,0,1,2.44-.06q10.18-.08,20.38-.06c1,0,1.07.07,2.67.2,1.38-.21.37,1.24,0,1.36a20.6,20.6,0,0,1-2.74.45c-2.72.4-4.07,1.64-4.14,4.39-.13,5.35-.08,10.71,0,16.07,0,1.76.75,2.45,2.59,2.44q11,0,22.06-.18" transform="translate(-229.9 -5.35)"/><path d="M304.13,263.63q11.28,0,22.55.1c1.63,0,2.34.35,2.34,2.27v8.75c0,4.89,0,9.05,0,10.83,0,2.63-1.7,3.08-4.27,3.27a6.22,6.22,0,0,0-1.9.1,2.07,2.07,0,0,0-1.09,1.32c-.11.67.41,1.17,1.2,1.16h.48l21.59.11,1,0c1.35,0,.7-1.05.69-1.76-1.56-.39-2.73-.61-4.2-.84a2.56,2.56,0,0,1-2.3-2.61,39.45,39.45,0,0,1-.17-4.07c.09-12.71-.15-26.6,0-39.31a22.73,22.73,0,0,1,.5-3.92,2.73,2.73,0,0,1,1.9-1.29c1.09-.22,2.17-.47,3.25-.76.64-.18,1.25-.46,1.88-.69,0-.28,0-1,0-1.26a12.55,12.55,0,0,0-2.45-.06q-10.19-.08-20.38-.06c-1,0-1.07.07-2.67.2-1.37-.21-.36,1.24,0,1.36a20.6,20.6,0,0,0,2.74.45c2.72.4,4.08,1.64,4.14,4.39.13,5.35.09,10.71,0,16.07,0,1.76-.75,2.45-2.58,2.44q-11,0-22.07-.18" transform="translate(-229.9 -5.35)"/><path d="M257.61,252.4c-.06.54.05,1.21-.22,1.6-1.28,1.81-2.66,3.55-4,5.3-1,1.32-2.1,2.6-3.1,3.94a3.34,3.34,0,0,0,0,4.15c2.37,3.86,4.61,7.8,6.88,11.71a1.26,1.26,0,0,1,0,1.2c-1.31-1.3-2.67-2.56-3.92-3.92-2.72-3-5.39-6-8.08-9.05a14.28,14.28,0,0,1-1.05-1.28,1.29,1.29,0,0,1,.23-1.9c1.64-1.48,3.22-3,4.87-4.52,2.52-2.29,5.08-4.54,7.64-6.79a3.15,3.15,0,0,1,.83-.38Z" transform="translate(-229.9 -5.35)"/><path d="M243.72,251.51c-.06.54.06,1.21-.22,1.6-1.27,1.81-2.65,3.54-4,5.3-1,1.32-2.09,2.6-3.09,3.93a3.34,3.34,0,0,0,0,4.16c2.37,3.86,4.61,7.79,6.89,11.71a1.24,1.24,0,0,1,0,1.2c-1.3-1.31-2.67-2.56-3.91-3.93-2.73-3-5.4-6-8.08-9a12.86,12.86,0,0,1-1.05-1.29,1.28,1.28,0,0,1,.22-1.89c1.65-1.49,3.23-3,4.87-4.53,2.53-2.28,5.09-4.53,7.64-6.78a2.92,2.92,0,0,1,.84-.38Z" transform="translate(-229.9 -5.35)"/><path d="M718.91,214.47c-1.64.09-2.83.2-4,.23-7.75.15-15.51.33-23.26.42-15.6.17-31.19.27-46.79.46a21,21,0,0,0-4.21.68c-3.49.74-7,1.5-10.43,2.31-9,2.11-18.24,1.91-27.42,1.89a5,5,0,0,0-3.84,1.54c-1.06,1.08-2.29,2-3.35,3.05a10.94,10.94,0,0,1-4.87,2.4,37.33,37.33,0,0,1-13.87,1.84c-3.7-.31-7.39-1-11.07-1.52-2.13-.33-4.24-.75-6.36-1.18-1.24-.25-2.47-.57-3.69-.91-6.46-1.76-13-3.4-19.34-5.37-5.28-1.62-10.45-3.6-15.65-5.48-5.85-2.1-11.7-4.2-17.51-6.4-7.64-2.91-15.25-5.91-22.87-8.87a6.9,6.9,0,0,1-.87-.41,7.66,7.66,0,0,0-7.33-.28c-3.21,1.43-6.45,2.76-9.68,4.13-5.61,2.36-11.2,4.77-16.84,7.07-5.15,2.12-10.33,4.2-15.55,6.15-3.31,1.24-6.72,2.19-10.08,3.32-4.3,1.44-8.57,3-12.91,4.38-3.19,1-6.44,1.81-9.68,2.67s-6.76,1.75-10.15,2.62a4.13,4.13,0,0,1-.7.14c-4.61.33-9.23,1-13.82.88-4.4-.13-8.92-.63-12.6-3.61a14,14,0,0,1-2.83-2.51c-1-1.49-2.4-1.7-4-1.68-4.15,0-8.31.12-12.47.12s-8.16,0-12.24-.15a45.65,45.65,0,0,1-14.77-2.74c-3.3-1.26-6.7-1.22-10.12-1.21-15.92,0-31.84-.15-47.75.25-6.05.15-12.11.42-18.18.47-2.58,0-3.09-.38-3.07-3,.06-6.39-.14-12.79.91-19.14.62-3.77.89-7.59,1.43-11.37.3-2.13.81-4.23,1.27-6.33,1.13-5.05,2.77-9.95,4.16-14.92a168.3,168.3,0,0,1,6.07-16.86c1.34-3.38,2.82-6.72,4.36-10,.94-2,2.1-3.91,3.18-5.84a169.29,169.29,0,0,1,14-21.56c1.91-2.45,3.61-5,5.58-7.44q5-6.06,10.24-11.92c2.16-2.42,4.46-4.73,6.83-7,3.92-3.69,7.84-7.4,12-10.86q7.2-6,14.78-11.64c4.15-3.07,8.47-5.94,12.87-8.65,5.39-3.32,10.91-6.44,16.44-9.54,2.42-1.36,5-2.36,7.5-3.67,4.48-2.39,9.23-4.14,13.87-6.12,2.94-1.26,5.93-2.39,8.91-3.52,3.55-1.34,7.1-2.67,10.69-3.9,2.47-.85,5-1.62,7.52-2.25,7.82-1.91,15.62-3.87,23.49-5.56,3.8-.83,7.72-1.13,11.59-1.62a10.16,10.16,0,0,1,2.64.08,6.64,6.64,0,0,1,1.6.71c-.23.46-.46.92-.7,1.38a1.53,1.53,0,0,1-.29.38,59,59,0,0,0-12,20.47c-1.16,3.29-1.82,6.76-3.11,10a57.92,57.92,0,0,0-2.88,11.27A97.27,97.27,0,0,0,416,73.32a106.1,106.1,0,0,0,.11,15.34c.71,7.37,1.62,14.75,4.38,21.74.87,2.21,1.43,4.54,2.13,6.82,0,.16.06.32.1.47.86,2.76,2.33,3.46,5,2.54s5.73-1.87,8.61-2.77c1.83-.57,2.38-1.55,1.94-3.41-2.59-10.69-4.18-21.5-3.53-32.53A91,91,0,0,1,436,69.14a84,84,0,0,1,2.76-11.37,119.08,119.08,0,0,1,5-13.39c1.79-3.69,3.84-7.26,5.78-10.88,2.85-5.29,6.73-9.85,10.49-14.45a119,119,0,0,1,9.32-9.48,39.06,39.06,0,0,1,4-3.38c1.56-1.15,2.28-1.12,3.83.15a87.16,87.16,0,0,1,11,10.15c2.69,3.11,5.49,6.13,8,9.39a85.26,85.26,0,0,1,8.52,13.18c1.1,2.2,2.4,4.3,3.44,6.52a52.85,52.85,0,0,1,2.46,6.17c1.42,4.38,2.79,8.78,4,13.21a40,40,0,0,1,1,5.67,132.87,132.87,0,0,1,1.26,13.82c.22,7.5-1,14.8-2.1,22.14a42.54,42.54,0,0,1-1.28,4.6,17.17,17.17,0,0,0-.43,2.34,1.83,1.83,0,0,0,1.49,2.14c3.3.94,6.57,2,9.9,2.79,2.2.55,2.73,0,3.48-2.13.86-2.47,1.21-5.07,2.41-7.46a17.47,17.47,0,0,0,1.25-5.06c1-6.22,2.41-12.37,2.45-18.73,0-7.29-.07-14.57-1.38-21.75-.63-3.43-1.58-6.81-2.46-10.19-.71-2.77-1.51-5.52-2.31-8.27A28,28,0,0,0,526.53,41c-1.57-3.48-3.11-7-4.91-10.35-2.24-4.18-4.57-8.33-8.08-11.66-.69-.66-1.86-1.34-1.43-2.56.5-1.43,1.89-.85,2.93-.92,4.11-.28,8.09.8,12.09,1.42,5.52.85,11,2.14,16.42,3.43,4.86,1.16,9.7,2.43,14.47,3.92,6.37,2,12.71,4.05,19,6.39,5,1.9,9.92,4.27,14.88,6.39a199.52,199.52,0,0,1,24.85,13c5.22,3.17,10.31,6.57,15.39,10,3.22,2.14,6.38,4.39,9.47,6.72,2.22,1.67,4.31,3.51,6.41,5.33,4.13,3.58,8.4,7,12.31,10.83,4.31,4.22,8.43,8.66,12.37,13.24,4.3,5,8.5,10.07,12.35,15.4s7.23,10.82,10.6,16.38a134.57,134.57,0,0,1,6.5,12.14c2.1,4.44,3.87,9,5.73,13.59,1.21,3,2.53,6,3.44,9.05,1.28,4.33,2.25,8.75,3.33,13.14.19.77.23,1.59.44,2.35,3,10.47,3.88,21.19,3.87,32C718.9,211.56,718.91,212.89,718.91,214.47ZM400,28.45a9.06,9.06,0,0,0-4.77.42c-7.95,2.51-15.82,5.22-23.48,8.51-5.47,2.35-11.06,4.44-16.25,7.38-4.27,2.42-8.62,4.69-12.77,7.3s-7.89,5.32-11.7,8.17a184.17,184.17,0,0,0-18,14.85c-4.84,4.68-9.81,9.25-14.39,14.18a228,228,0,0,0-20.82,26c-2,2.93-3.92,5.93-5.77,9s-3.53,5.87-5.11,8.89c-1.36,2.6-2.5,5.31-3.66,8-1.55,3.57-3.23,7.11-4.48,10.79-1.55,4.58-3.39,9.08-4.31,13.89-.64,3.34-1.82,6.58-1.87,10a9.92,9.92,0,0,1-.18,1.18c-.48,3.71-1.19,7.41-1.39,11.14a68.82,68.82,0,0,0,.5,15.77c.44,2.57.24,5.22,1.05,7.79s.93,2.84,3.54,2.82q19.78-.13,39.58-.34a4.68,4.68,0,0,0,3.54-1.24c-.49-.64-.91-1.25-1.41-1.8-2.53-2.81-5.34-5.36-7.42-8.59a51.34,51.34,0,0,1-4.37-9.17c-1.27-3.23-1.23-6.71-1.25-10.16a33.42,33.42,0,0,1,8-21.94c4.53-5.55,10.53-8.92,16.86-11.68a50.27,50.27,0,0,1,11-3,92.67,92.67,0,0,1,10.92-1.13c6-.4,11.94.54,17.9,1a62.16,62.16,0,0,1,8.26,1.15c5.68,1.26,11.35,2.59,16.94,4.19a4.72,4.72,0,0,0,5.31-1.48c2.37-2.43,4.82-4.82,7.42-7a132.66,132.66,0,0,1,19.15-13.62c2.53-1.45,2.66-2,1.34-4.56-1.77-3.38-3.73-6.67-5.2-10.17-2.47-5.93-4.63-12-6.89-18a77.14,77.14,0,0,1-2.27-9,109,109,0,0,1-2.36-15.61c-.76-7.85.24-15.61,1.6-23.34a54.34,54.34,0,0,1,3.7-12c.9-2.1,2-4.11,2.91-6.2A15.68,15.68,0,0,0,400,28.45ZM654.18,210a6.4,6.4,0,0,0,4,.82c5.51,0,11,0,16.55,0q11.4-.1,22.79-.3c2.2,0,2.82-.49,3-2.56.48-5.81,1.14-11.63,1.17-17.45a86.37,86.37,0,0,0-1.8-17.83c-.77-3.73-1.32-7.53-2.39-11.18-1.35-4.63-3.09-9.15-4.75-13.69A118.92,118.92,0,0,0,684,129.2q-4.62-8.05-9.9-15.72c-3.58-5.16-7.31-10.18-11.38-15-2.83-3.32-5.49-6.81-8.56-9.89-5.75-5.79-11.53-11.61-17.7-16.94a214.35,214.35,0,0,0-22.64-17.31C610.49,52.17,607.1,50,603.63,48c-3.24-1.86-6.58-3.56-10-5.13-4.88-2.26-9.84-4.37-14.8-6.48-2-.84-4-1.52-6-2.26-3.58-1.32-7.13-2.71-10.75-3.91s-7.6-2.33-11.42-3.43c-.47-.13-1.34-.1-1.49.16a2.17,2.17,0,0,0-.13,1.76c.48,1.08,1.31,2,1.79,3.09q2.07,4.66,4,9.41a40,40,0,0,1,2.28,9.22c.53,3.78,1.2,7.56,1.46,11.37a92.84,92.84,0,0,1,0,10.55c-.11,2.46-.55,4.9-.87,7.34a79.8,79.8,0,0,1-1.26,8.75,128.57,128.57,0,0,1-4,13.94c-1.82,4.92-4.16,9.65-6.3,14.45-1,2.17-2.05,4.3-3,6.47-.66,1.46-.46,2.15.83,3.09a17.51,17.51,0,0,0,2,1.21c1.55.81,3.18,1.48,4.65,2.41,5.26,3.35,10.7,6.45,15.39,10.64,2.6,2.32,5.43,4.4,7.9,6.85a4.76,4.76,0,0,0,5.31,1.47c5-1.46,10-3.2,15.25-3.62a2.86,2.86,0,0,0,.7-.17,28.3,28.3,0,0,1,8.16-1.62c1.67-.08,3.35-.19,5-.42,10.13-1.44,20.19-1.38,30.12,1.4.91.26,1.81.58,2.71.88A49,49,0,0,1,646,147.1a50.89,50.89,0,0,1,6.09,3.26,36.47,36.47,0,0,1,12,11.87,38,38,0,0,1,3.64,8.79,32.07,32.07,0,0,1,0,18.39,36,36,0,0,1-11.45,18A20.24,20.24,0,0,0,654.18,210Zm-144-123.15c-.31-6.59-.47-13.12-2.27-19.51-1.23-4.35-2-8.85-3.58-13.08A95.94,95.94,0,0,0,493,33c-1.67-2.41-3.65-4.61-5.4-7a69.07,69.07,0,0,0-11.08-11.46c-1.38-1.17-1.63-1.22-3,0a72.14,72.14,0,0,0-5.9,5.83c-3.32,3.84-6.64,7.71-9.59,11.83a80.36,80.36,0,0,0-6.4,10.86c-1.91,3.82-3.39,7.87-5,11.83a60.59,60.59,0,0,0-2.26,7.73c-1.21,4.55-2.43,9.08-2.59,13.81-.16,4.55-.3,9.11-.25,13.66a57.86,57.86,0,0,0,.68,8.83c.69,4.07,1.75,8.07,2.61,12.11.63,2.94,1.4,3.48,4.27,3,3.55-.57,7.09-1.23,10.66-1.59,5.64-.57,11.28-1.05,17-1.08A125.58,125.58,0,0,1,501,113.2c1,.19,2.07.11,3.1.22a2.08,2.08,0,0,0,2.41-1.81,101.62,101.62,0,0,0,2.17-10C509.39,96.69,509.69,91.74,510.14,86.82Zm72,69.36,3.64,5.43c1.19,1.76,2.44,3.49,3.57,5.28a36.56,36.56,0,0,1,1.91,3.54c1.83,3.71,3.77,7.37,5.37,11.17a69.32,69.32,0,0,1,2.53,8.19,65.18,65.18,0,0,1,2.74,16.93c0,1.75.32,3.5.44,5.25a2.22,2.22,0,0,0,2.28,2.28,24.52,24.52,0,0,0,4.77,0c8.15-1.13,16.36-1.66,24.43-3.48a62.85,62.85,0,0,0,12.87-4.86,28.88,28.88,0,0,0,8.65-6.59,24,24,0,0,0,6.34-13.12,49.1,49.1,0,0,0,.22-9.08c-.35-8.27-4.41-14.63-10.75-19.6-4.36-3.41-9.59-4.9-14.95-5.87a84.63,84.63,0,0,0-15.49-1.43c-6.8,0-13.6-.1-20.33,1.1-4.64.83-9.32,1.47-13.94,2.37C584.91,154,583.06,154.13,582.15,156.18ZM345.94,215.53h2.72c.8,0,1.6.06,2.4.06,2,0,2.67-.63,2.82-2.71,0-.32,0-.64,0-1a84.25,84.25,0,0,1,3.26-22.66,81,81,0,0,1,7.07-17.1c1.23-2.22,2.68-4.31,4-6.5a26.75,26.75,0,0,0,1.9-3.83,1.6,1.6,0,0,0-1-2.33,45.26,45.26,0,0,0-4.61-1.06c-2.42-.44-4.88-.66-7.27-1.21a54.8,54.8,0,0,0-10.55-1.81,11.64,11.64,0,0,1-1.43-.18c-5.52-.85-11.05-1.85-16.66-1.38A105.24,105.24,0,0,0,316,155.29c-3.71.77-7,2.35-10.47,3.72-3.94,1.57-6.76,4.66-9.22,8a22.77,22.77,0,0,0-4.54,11.11,36,36,0,0,0,.88,14,25.15,25.15,0,0,0,10.48,14.05,43.19,43.19,0,0,0,13,5.72,83.62,83.62,0,0,0,12.42,2.43C334.53,215,340.52,215.18,345.94,215.53Zm227.74-58c-3,1-5.69,1.92-8.37,2.85-3.77,1.29-7.55,2.56-11.29,3.94-2.24.82-4.34,2.11-6.63,2.68-3.4.85-6.26,2.93-9.71,3.7-2.73.61-5.22,2.22-7.84,3.33-6,2.54-12.05,5-18,7.58-2.46,1-4.84,2.28-7.21,3.53-1.24.65-1.3,1.53-.22,2.34a24.05,24.05,0,0,0,3.17,2.13c4.88,2.63,9.79,5.21,14.69,7.8a21.23,21.23,0,0,0,2.17,1c4.82,1.87,9.64,3.75,14.48,5.56,2.37.89,4.78,1.68,7.21,2.39,2.11.63,4.28,1.08,6.42,1.6,3.34.8,6.66,1.71,10,2.37s6.46,1.11,9.71,1.46c6.83.72,13.67,1.35,20.51,1.94,2,.17,2.6-.34,2.55-2.25a123.75,123.75,0,0,0-.78-12.92,64.67,64.67,0,0,0-4-14.69,76.48,76.48,0,0,0-9.09-17c-1.66-2.32-3.48-4.52-5.27-6.74C575.35,159.26,574.46,158.41,573.68,157.57ZM447.82,187.09a12.09,12.09,0,0,0-1.9-1.57c-1.48-.75-3-1.43-4.54-2.05-4.46-1.81-8.94-3.57-13.4-5.37-4.66-1.88-9.29-3.82-14-5.68-2.55-1-5.14-1.93-7.73-2.86-2.75-1-5.5-2-8.29-2.87-3.11-1-6.26-1.84-9.42-2.65-2.46-.64-5-1.11-7.46-1.67-1.91-.44-3.24.46-4.27,1.92-1.36,1.93-2.7,3.89-4,5.86-5.64,8.47-8.73,18-11.12,27.73a54.08,54.08,0,0,0-1.08,14.53c.06,2.36,1,3.12,3.34,2.85,4.19-.48,8.38-1,12.58-1.49,7.73-.82,15.23-2.75,22.72-4.67a134.2,134.2,0,0,0,20.23-6.86q8.93-3.92,17.65-8.27c3-1.48,5.75-3.36,8.59-5.1A20,20,0,0,0,447.82,187.09Zm29.8-69.54c-9.63,1-18.1,1-26.38,3-2.4.56-3.06,1.58-2.08,3.88a129.7,129.7,0,0,0,9.22,18.22,113.57,113.57,0,0,0,11.11,15.13c1.58,1.78,3.09,3.64,4.77,5.32,1.19,1.2,1.85,1.19,3,0a66.48,66.48,0,0,0,5.43-6,144.18,144.18,0,0,0,12.76-18.61,114.89,114.89,0,0,0,7.16-15.08c.79-2.14.11-3.38-2.15-3.78-1-.17-2.07-.25-3.1-.34Zm22.51,60.36.29.68a9.52,9.52,0,0,0,2-.22c1.21-.4,2.38-.92,3.55-1.42,4.09-1.77,8.16-3.62,12.29-5.32,4.82-2,9.68-3.88,14.53-5.79,4.08-1.6,8.17-3.16,12.26-4.73q4.65-1.79,9.31-3.54c2.75-1,5.51-2,8.26-3.07,1.11-.42,2.21-.88,3.29-1.38,1.78-.84,2-1.71.67-3.09a19.49,19.49,0,0,0-2.29-2.34c-3.37-2.6-6.71-5.28-10.24-7.66a120.72,120.72,0,0,0-12.9-7.5c-2.49-1.27-3-.54-4.1,1.07-2.41,3.55-4.66,7.21-7.15,10.7-2.62,3.67-5.43,7.21-8.18,10.79-1.78,2.32-3.44,4.74-5.43,6.87-3.62,3.87-7.44,7.55-11.19,11.3-.5.5-1.07.93-1.58,1.42Q501.82,176.29,500.13,177.91Zm-49,1.45a11.24,11.24,0,0,0-1.14-1.65c-1.49-1.44-3.05-2.81-4.53-4.25-2.72-2.65-5.52-5.23-8.07-8q-5.61-6.15-10.89-12.6c-2.5-3-4.77-6.26-7.08-9.45-1.82-2.51-3.49-5.14-5.35-7.62-1.22-1.63-1.51-1.52-3.36-.61a70.19,70.19,0,0,0-11.49,7.22c-1.69,1.28-3.39,2.56-5,3.93-2.41,2-4.8,4.13-7.1,6.31-1.2,1.13-.85,2.47.71,3.07,2.64,1,5.31,2,8,2.95,4.83,1.77,9.69,3.48,14.51,5.31,6.48,2.47,12.94,5,19.39,7.57s13,5.16,19.53,7.71A8.19,8.19,0,0,0,451.13,179.36ZM440,123.27a19.27,19.27,0,0,0-2.33.43c-2.55.86-5.08,1.77-7.62,2.66s-2.9,1.71-1.68,4.07c2.07,4,4.08,8,6.37,11.91,2.74,4.65,5.6,9.25,8.69,13.66,2.55,3.63,5.45,7,8.3,10.41,2.49,3,5.1,5.83,7.74,8.67,2,2.17,2.78,2.17,5,.26,1.44-1.26,2.83-2.56,4.2-3.88,1.77-1.72,1.74-2.53,0-4.35a121.82,121.82,0,0,1-14.42-18.59c-1.09-1.75-2-3.58-3.16-5.31A91.79,91.79,0,0,1,443.34,128a19.31,19.31,0,0,0-1.62-3.44A5.86,5.86,0,0,0,440,123.27Zm72.47-1.17c-1.9.17-2.26.43-2.83,2.17-.2.6-.39,1.21-.64,1.79a155,155,0,0,1-10.23,19.85,112.52,112.52,0,0,1-10.32,14.48c-2,2.29-4,4.52-6,6.82-1.37,1.63-1.36,2.7.14,4.14a58.32,58.32,0,0,0,4.7,4.05c1.48,1.16,2.5,1,3.77-.33,2.15-2.32,4.33-4.62,6.36-7,2.49-3,4.89-6,7.24-9.13,2-2.65,4.05-5.3,5.8-8.12,3-4.78,5.77-9.67,8.53-14.57,1.45-2.56,2.79-5.19,4-7.88,1-2.29.52-3.14-1.91-3.84-1.67-.47-3.37-.84-5-1.3C514.88,122.86,513.7,122.46,512.5,122.1Zm-47.44,72.19c-.68-.81-.91-1.31-1.3-1.49a40.87,40.87,0,0,0-4.8-2.11,5,5,0,0,0-4.76.64,68.12,68.12,0,0,1-8.55,5.48c-6.67,3.35-12.93,7.49-20.08,9.9-3.67,1.23-7.12,3.13-10.79,4.4-4.81,1.67-9.73,3-14.61,4.49a46.58,46.58,0,0,1-8.53,2.08c-3.13.33-6.19,1.24-9.3,1.78-4,.71-8,1.29-12,2a4.48,4.48,0,0,0-1.21.62c.3,1.4,1.41,1.4,2.28,1.46,2.23.15,4.48.22,6.71.15a52.74,52.74,0,0,0,12.28-1.93c4.52-1.24,9.12-2.17,13.62-3.46,3.4-1,6.7-2.29,10-3.5q9.42-3.44,18.83-6.92l3.54-1.33c3.83-1.45,7.67-2.85,11.46-4.36q4.56-1.82,9-3.85C459.5,197.09,462.1,195.74,465.06,194.29Zm121.62,26.36c-.87-.18-1.55-.34-2.23-.44-1.18-.19-2.37-.33-3.55-.51-2.35-.38-4.69-.83-7-1.13-2.52-.33-5-.26-7.57-.89-4-1-8.13-1.48-12.2-2.23a42.16,42.16,0,0,1-5.09-1.17c-3.73-1.16-7.42-2.43-11.11-3.68-4.34-1.47-8.7-2.85-13-4.49a70.52,70.52,0,0,1-8.36-3.89c-5.93-3.23-11.77-6.6-17.63-9.93-1.17-.67-2.24-1.54-3.44-2.13a3.23,3.23,0,0,0-2.26-.35,47.82,47.82,0,0,0-5.57,2.61c-.52.27-.82.93-1.3,1.49a16.68,16.68,0,0,0,2.27,1.48c4.84,2,9.66,4.15,14.57,6,5.62,2.13,11.33,4.05,17,6.05q4.93,1.75,9.88,3.49c3.61,1.24,7.22,2.52,10.85,3.67,2.65.85,5.34,1.52,8,2.26,2,.55,3.95,1.12,5.94,1.62,1.76.44,3.56.74,5.3,1.24a37.23,37.23,0,0,0,8.6,1.76,14.34,14.34,0,0,1,2.62.33c4.27,1,8.58.68,12.89.53A2.15,2.15,0,0,0,586.68,220.65Zm-111-31a10.63,10.63,0,0,0,1.48-1c1.94-1.74,3.87-3.49,5.73-5.31,1-1,1-1.7,0-2.66-1.65-1.59-3.34-3.14-5.11-4.58s-2.62-1.37-4.39.16c-1.62,1.4-3.2,2.84-4.76,4.31-1.29,1.21-1.41,2-.19,3.22,1.82,1.87,3.79,3.59,5.75,5.32A4.73,4.73,0,0,0,475.64,189.68Z" transform="translate(-229.9 -5.35)"/></svg>